<svg width="585" height="585" viewBox="0 0 585 585" fill="none" xmlns="http://www.w3.org/2000/svg">
<g clip-path="url(#clip0_1_870)">
<rect x="0.980957" y="0.506943" width="583.519" height="583.519" rx="38.9013" fill="#F6EADD"/>
<path fill-rule="evenodd" clip-rule="evenodd" d="M163.07 136.006C163.07 132.787 165.679 130.178 168.898 130.178H362.684H415.657H415.758C418.976 130.178 421.586 132.787 421.586 136.006V188.979C421.586 189.35 421.551 189.713 421.485 190.065V447.495C421.485 450.713 418.875 453.323 415.657 453.323H414.752C414.741 453.323 414.73 453.323 414.719 453.323H297.117C293.898 453.323 291.289 450.714 291.289 447.495V394.522C291.289 391.303 293.898 388.694 297.117 388.694H356.856V194.807H168.898C165.679 194.807 163.07 192.197 163.07 188.979V136.006ZM169.705 259.436C166.487 259.436 163.877 262.045 163.877 265.264V318.237V447.495C163.877 450.714 166.487 453.323 169.705 453.323H222.678C225.897 453.323 228.506 450.714 228.506 447.495V324.065H287.307C290.526 324.065 293.135 321.456 293.135 318.237V265.264C293.135 262.045 290.526 259.436 287.307 259.436H222.678H169.705Z" fill="#2D2727"/>
</g>
<defs>
<clipPath id="clip0_1_870">
<rect x="0.980957" y="0.506943" width="583.519" height="583.519" rx="4" fill="white"/>
</clipPath>
</defs>
</svg>
