<svg width="585" height="585" viewBox="0 0 585 585" fill="none" xmlns="http://www.w3.org/2000/svg">
<rect x="0.980957" y="0.597595" width="583.519" height="583.519" rx="8" fill="#24201E"/>
<path fill-rule="evenodd" clip-rule="evenodd" d="M168.256 143.632C168.256 140.549 170.756 138.049 173.84 138.049H359.497H410.247H410.344C413.428 138.049 415.928 140.549 415.928 143.632V194.383C415.928 194.738 415.894 195.086 415.831 195.423V442.054C415.831 445.138 413.331 447.638 410.247 447.638H409.375C409.367 447.638 409.358 447.638 409.349 447.638H296.681C293.597 447.638 291.097 445.138 291.097 442.054V391.304C291.097 388.22 293.597 385.72 296.681 385.72H353.913V199.967H173.84C170.756 199.967 168.256 197.467 168.256 194.383V143.632ZM174.614 261.884C171.53 261.884 169.03 264.384 169.03 267.468V318.219V442.054C169.03 445.138 171.53 447.638 174.614 447.638H225.364C228.448 447.638 230.948 445.138 230.948 442.054V323.802H287.282C290.366 323.802 292.866 321.302 292.866 318.219V267.468C292.866 264.384 290.366 261.884 287.282 261.884H225.364H174.614Z" fill="#EADBCA"/>
</svg>
