<svg width="584" height="584" viewBox="0 0 584 584" fill="none" xmlns="http://www.w3.org/2000/svg">
<g clip-path="url(#clip0_1_694)">
<rect y="0.233948" width="583.519" height="583.519" rx="8" fill="#F6EADD"/>
<path fill-rule="evenodd" clip-rule="evenodd" d="M176.385 143.998C176.385 140.999 178.816 138.568 181.815 138.568H362.361H411.714H411.808C414.807 138.568 417.238 140.999 417.238 143.998V193.351C417.238 193.697 417.206 194.035 417.144 194.363V434.205C417.144 437.204 414.713 439.635 411.714 439.635H410.84H362.361H301.274C298.275 439.635 295.844 437.204 295.844 434.205V384.851C295.844 381.853 298.275 379.421 301.274 379.421H356.931V198.781H181.815C178.816 198.781 176.385 196.35 176.385 193.351V143.998ZM182.567 258.995C179.756 258.995 177.444 261.131 177.165 263.87C177.147 264.052 177.137 264.237 177.137 264.425V313.778V434.205C177.137 437.204 179.568 439.635 182.567 439.635H231.921C234.92 439.635 237.351 437.204 237.351 434.205V319.208H292.134C295.133 319.208 297.564 316.777 297.564 313.778V264.425C297.564 261.426 295.133 258.995 292.134 258.995H231.921H182.567Z" fill="#2D2727"/>
</g>
<defs>
<clipPath id="clip0_1_694">
<rect width="583.519" height="583.519" fill="white" transform="translate(0 0.233948)"/>
</clipPath>
</defs>
</svg>
