<svg width="1920" height="518" viewBox="0 0 1920 518" fill="none" xmlns="http://www.w3.org/2000/svg">
<g clip-path="url(#clip0_1_61)">
<path fill-rule="evenodd" clip-rule="evenodd" d="M88.605 76C84.9572 76 82 78.9571 82 82.605V142.639C82 146.286 84.9572 149.244 88.605 149.244H293.616C298.034 149.244 301.616 152.825 301.616 157.244V360.974C301.616 365.393 298.034 368.974 293.616 368.974H233.915C230.267 368.974 227.31 371.931 227.31 375.579V435.613C227.31 439.261 230.267 442.218 233.915 442.218H367.192L367.227 442.218H368.255C371.903 442.218 374.86 439.261 374.86 435.613V144.616C374.86 144.119 374.92 143.624 374.956 143.129C374.968 142.967 374.974 142.803 374.974 142.639V82.605C374.974 78.9572 372.017 76 368.369 76H368.255H308.221H88.605ZM82.9155 229.092C82.9155 225.444 85.8727 222.487 89.5205 222.487H149.554H222.798C226.445 222.487 229.403 225.444 229.403 229.092V289.126C229.403 292.774 226.445 295.731 222.798 295.731H164.159C159.741 295.731 156.159 299.312 156.159 303.731V435.613C156.159 439.261 153.202 442.218 149.554 442.218H89.5205C85.8727 442.218 82.9155 439.261 82.9155 435.613V289.126V229.092ZM447.629 82.605C447.629 78.9572 450.586 76 454.234 76H455.509H514.268H673.965H733.998H735.274C738.921 76 741.879 78.9572 741.879 82.605V142.639C741.879 143.169 741.816 143.686 741.698 144.18C741.302 145.835 740.603 147.458 740.603 149.16V227.258C740.603 227.718 740.655 228.178 740.686 228.637C740.696 228.788 740.701 228.939 740.701 229.092V289.126C740.701 292.774 737.744 295.731 734.096 295.731H675.458C671.04 295.731 667.458 299.312 667.458 303.731V360.974C667.458 365.393 671.04 368.974 675.458 368.974H734.096C737.744 368.974 740.701 371.931 740.701 375.579V435.613C740.701 439.261 737.744 442.218 734.096 442.218H600.819C597.171 442.218 594.214 439.261 594.214 435.613V375.579V289.126V229.092C594.214 225.444 597.172 222.487 600.819 222.487H660.853C664.446 222.487 667.359 219.574 667.359 215.981V157.244C667.359 152.825 663.778 149.244 659.359 149.244H528.873C524.455 149.244 520.873 152.825 520.873 157.244V435.613C520.873 439.261 517.916 442.218 514.268 442.218H454.234C450.586 442.218 447.629 439.261 447.629 435.613V82.605ZM819.808 76.1342C820.238 76.0462 820.683 76 821.139 76H881.172H1100.9C1104.55 76 1107.51 78.9572 1107.51 82.605V142.639C1107.51 146.286 1104.55 149.244 1100.9 149.244H895.777C891.359 149.244 887.777 152.825 887.777 157.244V360.974C887.777 365.393 891.359 368.974 895.777 368.974H1026.26C1030.68 368.974 1034.26 365.393 1034.26 360.974V303.731C1034.26 299.312 1030.68 295.731 1026.26 295.731H967.626C963.978 295.731 961.021 292.774 961.021 289.126V229.092C961.021 225.444 963.978 222.487 967.626 222.487H1040.87H1100.9C1101.13 222.487 1101.36 222.499 1101.58 222.521C1104.91 222.859 1107.51 225.672 1107.51 229.092V289.126L1107.51 435.613C1107.51 438.805 1105.24 441.468 1102.23 442.084C1101.8 442.172 1101.36 442.218 1100.9 442.218H821.139C820.214 442.218 819.333 442.028 818.534 441.684C816.181 440.674 814.534 438.336 814.534 435.613V375.579L814.534 375.517V142.639V82.605C814.534 79.4131 816.798 76.7501 819.808 76.1342ZM1186.77 76C1183.12 76 1180.16 78.9571 1180.16 82.605V142.639V375.579V435.613C1180.16 439.261 1183.12 442.218 1186.77 442.218H1466.53C1470.18 442.218 1473.14 439.261 1473.14 435.613V375.579C1473.14 375.297 1473.12 375.019 1473.09 374.746C1472.98 373.886 1472.79 373.029 1472.79 372.162V146.056C1472.79 145.188 1472.98 144.332 1473.09 143.472C1473.12 143.199 1473.14 142.921 1473.14 142.639V82.605C1473.14 78.9572 1470.18 76 1466.53 76H1466.19H1406.16H1246.8H1186.77ZM1391.55 149.244C1395.97 149.244 1399.55 152.825 1399.55 157.244V360.974C1399.55 365.393 1395.97 368.974 1391.55 368.974H1261.41C1256.99 368.974 1253.41 365.393 1253.41 360.974V157.244C1253.41 152.825 1256.99 149.244 1261.41 149.244H1391.55ZM1545.79 82.605C1545.79 78.9571 1548.75 76 1552.4 76H1662.26H1722.3H1832.16C1835.81 76 1838.77 78.9572 1838.77 82.605V142.639C1838.77 146.286 1835.81 149.244 1832.16 149.244H1736.9C1732.48 149.244 1728.9 152.825 1728.9 157.244V435.613C1728.9 439.261 1725.94 442.218 1722.3 442.218H1662.26C1658.61 442.218 1655.66 439.261 1655.66 435.613V157.244C1655.66 152.825 1652.08 149.244 1647.66 149.244H1552.4C1548.75 149.244 1545.79 146.286 1545.79 142.639V82.605Z" fill="#2D2727"/>
</g>
<defs>
<clipPath id="clip0_1_61">
<rect width="1920" height="518" fill="white"/>
</clipPath>
</defs>
</svg>
