<svg width="484" height="518" viewBox="0 0 484 518" fill="none" xmlns="http://www.w3.org/2000/svg">
<g clip-path="url(#clip0_1_597)">
<path fill-rule="evenodd" clip-rule="evenodd" d="M96 82.8546C96 79.2068 98.9572 76.2496 102.605 76.2496H322.221H382.255H382.369C386.017 76.2496 388.974 79.2068 388.974 82.8546V142.888C388.974 143.309 388.935 143.72 388.86 144.119V435.862C388.86 439.51 385.903 442.467 382.255 442.467H381.227C381.215 442.467 381.204 442.467 381.192 442.467H247.915C244.267 442.467 241.31 439.51 241.31 435.862V375.829C241.31 372.181 244.267 369.224 247.915 369.224H315.616V149.493H102.605C98.9572 149.493 96 146.536 96 142.888V82.8546ZM103.521 222.737C99.8727 222.737 96.9155 225.694 96.9155 229.342V289.375V435.862C96.9155 439.51 99.8727 442.467 103.521 442.467H163.554C167.202 442.467 170.159 439.51 170.159 435.862V295.98H236.798C240.445 295.98 243.403 293.023 243.403 289.375V229.342C243.403 225.694 240.445 222.737 236.798 222.737H163.554H103.521Z" fill="#2D2727"/>
</g>
<defs>
<clipPath id="clip0_1_597">
<rect width="484" height="518" fill="white"/>
</clipPath>
</defs>
</svg>
