<svg width="484" height="518" viewBox="0 0 484 518" fill="none" xmlns="http://www.w3.org/2000/svg">
<g clip-path="url(#clip0_1_482)">
<path d="M236.798 222.737C240.445 222.737 243.402 225.694 243.402 229.341V289.376C243.402 293.023 240.445 295.98 236.798 295.98H170.159V435.862C170.159 439.51 167.201 442.467 163.553 442.467H103.52C99.8724 442.467 96.9148 439.51 96.9148 435.862V229.341C96.915 225.694 99.8725 222.737 103.52 222.737H236.798ZM382.369 76.2496C386.017 76.2496 388.974 79.2073 388.974 82.8551V142.888C388.974 143.306 388.933 143.715 388.859 144.111V435.862C388.859 439.51 385.902 442.467 382.255 442.467H247.915C244.267 442.467 241.31 439.511 241.309 435.863V375.829C241.309 372.181 244.267 369.224 247.915 369.224H315.616V149.493H102.605C98.9574 149.493 95.9998 146.536 95.9998 142.888V82.8551C95.9998 79.2073 98.9574 76.2496 102.605 76.2496H382.369Z" fill="#EADBCA"/>
</g>
<defs>
<clipPath id="clip0_1_482">
<rect width="484" height="518" fill="white"/>
</clipPath>
</defs>
</svg>
