<svg width="584" height="585" viewBox="0 0 584 585" fill="none" xmlns="http://www.w3.org/2000/svg">
<rect y="0.837402" width="583.519" height="583.519" rx="8" fill="#24201E"/>
<path fill-rule="evenodd" clip-rule="evenodd" d="M184.846 158.939C184.846 156.066 187.175 153.737 190.048 153.737H363.02H410.303H410.393C413.266 153.737 415.595 156.066 415.595 158.939V206.222C415.595 206.553 415.564 206.877 415.505 207.191V436.972C415.505 439.845 413.176 442.174 410.303 442.174H409.492C409.483 442.174 409.475 442.174 409.466 442.174H304.496C301.623 442.174 299.293 439.845 299.293 436.972V389.689C299.293 386.816 301.623 384.487 304.496 384.487H357.818V211.424H190.048C187.175 211.424 184.846 209.095 184.846 206.222V158.939ZM190.769 269.112C188.075 269.112 185.86 271.159 185.594 273.782C185.576 273.957 185.567 274.134 185.567 274.314V321.597V436.972C185.567 439.845 187.896 442.174 190.769 442.174H238.052C240.925 442.174 243.254 439.845 243.254 436.972V326.799H295.739C298.613 326.799 300.942 324.47 300.942 321.597V274.314C300.942 271.441 298.613 269.112 295.739 269.112H238.052H190.769Z" fill="#EADBCA"/>
</svg>
